<?xml version="1.0" encoding="UTF-8"?>
<svg xmlns="http://www.w3.org/2000/svg" xmlns:xlink="http://www.w3.org/1999/xlink" width="124pt" height="128pt" viewBox="0 0 124 128" version="1.1">
<g id="surface1">
<path style=" stroke:none;fill-rule:nonzero;fill:rgb(0%,0%,0%);fill-opacity:1;" d="M 84.125 40 C 80.5 17.675781 71.949219 2 62 2 C 52.050781 2 43.5 17.675781 39.875 40 Z M 38 64 C 38 69.550781 38.300781 74.875 38.824219 80 L 85.148438 80 C 85.675781 74.875 85.976562 69.550781 85.976562 64 C 85.976562 58.449219 85.675781 53.125 85.148438 48 L 38.824219 48 C 38.300781 53.125 38 58.449219 38 64 Z M 119.175781 40 C 112.023438 23.023438 97.550781 9.898438 79.675781 4.601562 C 85.773438 13.050781 89.976562 25.773438 92.175781 40 Z M 44.300781 4.601562 C 26.449219 9.898438 11.949219 23.023438 4.824219 40 L 31.824219 40 C 34 25.773438 38.199219 13.050781 44.300781 4.601562 Z M 121.851562 48 L 93.175781 48 C 93.699219 53.25 94 58.625 94 64 C 94 69.375 93.699219 74.75 93.175781 80 L 121.824219 80 C 123.199219 74.875 123.976562 69.550781 123.976562 64 C 123.976562 58.449219 123.199219 53.125 121.851562 48 Z M 30 64 C 30 58.625 30.300781 53.25 30.824219 48 L 2.148438 48 C 0.800781 53.125 0 58.449219 0 64 C 0 69.550781 0.800781 74.875 2.148438 80 L 30.800781 80 C 30.300781 74.75 30 69.375 30 64 Z M 39.875 88 C 43.5 110.324219 52.050781 126 62 126 C 71.949219 126 80.5 110.324219 84.125 88 Z M 79.699219 123.398438 C 97.550781 118.101562 112.050781 104.976562 119.199219 88 L 92.199219 88 C 90 102.226562 85.800781 114.949219 79.699219 123.398438 Z M 4.824219 88 C 11.976562 104.976562 26.449219 118.101562 44.324219 123.398438 C 38.226562 114.949219 34.023438 102.226562 31.824219 88 Z M 4.824219 88 "/>
</g>
</svg>
