<?xml version="1.0" encoding="UTF-8"?>
<svg version="1.1" viewBox="0 0 1052.4 744.09" xmlns="http://www.w3.org/2000/svg">
 <g transform="translate(0 -308.27)">
  <path transform="matrix(.57822 0 0 .57822 304.27 439.77)" d="m491.9 383.91-29.954 3.8448-9.9886 28.5-30.099-2.467-15.696 25.801-28.928-8.671-20.717 21.974-26.493-14.496-24.833 17.186-22.901-19.688-27.864 11.647-18.307-24.019-29.676 5.5997-12.913-27.3-30.192-0.69272-6.9548-29.388-29.388-6.9548-0.69272-30.192l-27.3-12.913 5.5997-29.676-24.019-18.307 11.647-27.864-19.688-22.901 17.186-24.833-14.496-26.493 21.974-20.717-8.671-28.928 25.801-15.696-2.467-30.099 28.5-9.9887 3.8448-29.954 29.954-3.8448 9.9886-28.5 30.099 2.467 15.696-25.801 28.928 8.671 20.717-21.974 26.493 14.496 24.833-17.186 22.901 19.688 27.864-11.647 18.307 24.019 29.676-5.5997 12.913 27.3 30.192 0.69272 6.9548 29.388 29.388 6.9548 0.69272 30.192 27.3 12.913-5.5997 29.676 24.019 18.307-11.647 27.864 19.688 22.901-17.186 24.833 14.496 26.493-21.974 20.717 8.671 28.928-25.801 15.696 2.467 30.099-28.5 9.9886z"/>
  <path transform="matrix(.44567 0 0 .44567 349.39 466.13)" d="m491.9 383.91-19.124 17.219-20.819 15.126-22.286 12.867-23.509 10.467-24.474 7.9522-25.171 5.3503-25.593 2.6899h-25.734l-25.593-2.6899-25.171-5.3503-24.474-7.9522-23.509-10.467-22.286-12.867-20.819-15.126-19.124-17.219-17.219-19.124-15.126-20.819-12.867-22.286-10.467-23.509-7.9521-24.474-5.3503-25.171-2.6899-25.593v-25.734l2.6899-25.593 5.3503-25.171 7.9521-24.474 10.467-23.509 12.867-22.286 15.126-20.819 17.219-19.124 19.124-17.219 20.819-15.126 22.286-12.867 23.509-10.467 24.474-7.9521 25.171-5.3503 25.593-2.6899h25.734l25.593 2.6899 25.171 5.3503 24.474 7.9521 23.509 10.467 22.286 12.867 20.819 15.126 19.124 17.219 17.219 19.124 15.126 20.819 12.867 22.286 10.467 23.509 7.9522 24.474 5.3503 25.171 2.6899 25.593v25.734l-2.6899 25.593-5.3503 25.171-7.9522 24.474-10.467 23.509-12.867 22.286-15.126 20.819z" fill="#fff"/>
  <path transform="matrix(.41253 0 0 .41253 360.67 473.83)" d="m491.9 383.91-19.124 17.219-20.819 15.126-22.286 12.867-23.509 10.467-24.474 7.9522-25.171 5.3503-25.593 2.6899h-25.734l-25.593-2.6899-25.171-5.3503-24.474-7.9522-23.509-10.467-22.286-12.867-20.819-15.126-19.124-17.219-17.219-19.124-15.126-20.819-12.867-22.286-10.467-23.509-7.9521-24.474-5.3503-25.171-2.6899-25.593v-25.734l2.6899-25.593 5.3503-25.171 7.9521-24.474 10.467-23.509 12.867-22.286 15.126-20.819 17.219-19.124 19.124-17.219 20.819-15.126 22.286-12.867 23.509-10.467 24.474-7.9521 25.171-5.3503 25.593-2.6899h25.734l25.593 2.6899 25.171 5.3503 24.474 7.9521 23.509 10.467 22.286 12.867 20.819 15.126 19.124 17.219 17.219 19.124 15.126 20.819 12.867 22.286 10.467 23.509 7.9522 24.474 5.3503 25.171 2.6899 25.593v25.734l-2.6899 25.593-5.3503 25.171-7.9522 24.474-10.467 23.509-12.867 22.286-15.126 20.819z"/>
  <g transform="translate(-10.355 45.859)">
   <path d="m447.53 666.13 79.58 32.721-77.414 188.28-26.449-46.047-53.131 13.326z"/>
   <rect transform="rotate(90)" x="663.3" y="-555.64" width="70.305" height="108.08"/>
   <path d="m556.73 666.13-79.58 32.721 77.414 188.28 26.449-46.047 53.131 13.326z"/>
  </g>
 </g>
</svg>
