<?xml version="1.0" encoding="UTF-8"?>
<svg xmlns="http://www.w3.org/2000/svg" xmlns:xlink="http://www.w3.org/1999/xlink" width="88pt" height="128pt" viewBox="0 0 88 128" version="1.1">
<g id="surface1">
<path style=" stroke:none;fill-rule:nonzero;fill:rgb(0%,0%,0%);fill-opacity:1;" d="M 60.679688 64 L 85.699219 38.984375 C 88.765625 35.914062 88.765625 30.933594 85.699219 27.863281 L 80.136719 22.300781 C 77.066406 19.234375 72.089844 19.234375 69.015625 22.300781 L 44 47.320312 L 18.984375 22.300781 C 15.914062 19.234375 10.933594 19.234375 7.863281 22.300781 L 2.300781 27.863281 C -0.765625 30.933594 -0.765625 35.910156 2.300781 38.984375 L 27.320312 64 L 2.300781 89.015625 C -0.765625 92.085938 -0.765625 97.066406 2.300781 100.136719 L 7.863281 105.699219 C 10.933594 108.765625 15.914062 108.765625 18.984375 105.699219 L 44 80.679688 L 69.015625 105.699219 C 72.085938 108.765625 77.066406 108.765625 80.136719 105.699219 L 85.699219 100.136719 C 88.765625 97.066406 88.765625 92.089844 85.699219 89.015625 Z M 60.679688 64 "/>
</g>
</svg>
