<?xml version="1.0" encoding="UTF-8"?>
<svg xmlns="http://www.w3.org/2000/svg" xmlns:xlink="http://www.w3.org/1999/xlink" width="144pt" height="128pt" viewBox="0 0 144 128" version="1.1">
<g id="surface1">
<path style=" stroke:none;fill-rule:nonzero;fill:rgb(0%,0%,0%);fill-opacity:1;" d="M 137.414062 31.019531 C 135.84375 25.109375 131.21875 20.453125 125.34375 18.871094 C 114.695312 16 72 16 72 16 C 72 16 29.304688 16 18.65625 18.871094 C 12.78125 20.453125 8.15625 25.109375 6.585938 31.019531 C 3.734375 41.738281 3.734375 64.097656 3.734375 64.097656 C 3.734375 64.097656 3.734375 86.457031 6.585938 97.171875 C 8.15625 103.085938 12.78125 107.546875 18.65625 109.128906 C 29.304688 112 72 112 72 112 C 72 112 114.695312 112 125.34375 109.128906 C 131.21875 107.546875 135.84375 103.085938 137.414062 97.171875 C 140.265625 86.457031 140.265625 64.097656 140.265625 64.097656 C 140.265625 64.097656 140.265625 41.738281 137.414062 31.019531 Z M 58.035156 84.398438 L 58.035156 43.796875 L 93.722656 64.097656 Z M 58.035156 84.398438 "/>
</g>
</svg>
